<svg xmlns="http://www.w3.org/2000/svg" width="50" height="50" viewBox="0 0 24 24" fill="#00A8E0">
  <path d="M5.036 11.532c0 .55.056 1.02.166 1.396.11.377.255.786.44 1.23a.739.739 0 0 1 .11.37c0 .163-.099.326-.302.49l-1.003.668a.757.757 0 0 1-.413.138c-.159 0-.318-.08-.477-.228a4.916 4.916 0 0 1-.57-.744 12.185 12.185 0 0 1-.496-1.006c-1.245 1.47-2.81 2.204-4.697 2.204-1.342 0-2.408-.383-3.191-1.15-.784-.766-1.18-1.788-1.18-3.065 0-1.356.478-2.456 1.44-3.292.962-.836 2.242-1.254 3.851-1.254.534 0 1.085.043 1.664.121.578.08 1.172.2 1.793.356v-1.138c0-1.184-.248-2.01-.737-2.486-.496-.476-1.336-.71-2.526-.71-.543 0-1.1.063-1.671.195a12.29 12.29 0 0 0-1.671.52 4.434 4.434 0 0 1-.543.195.943.943 0 0 1-.248.04c-.218 0-.326-.16-.326-.487v-.768c0-.254.032-.444.104-.572.072-.127.2-.254.397-.38a8.41 8.41 0 0 1 1.917-.686A9.288 9.288 0 0 1 .14 3.547c1.778 0 3.076.404 3.905 1.214.821.81 1.237 2.04 1.237 3.693v4.87l-.246.208zm-6.47 2.423c.516 0 1.05-.094 1.617-.283.566-.19 1.07-.534 1.496-1.014.254-.302.444-.638.542-1.014.1-.375.162-.83.162-1.356v-.653a13.117 13.117 0 0 0-1.44-.27 11.807 11.807 0 0 0-1.473-.094c-1.05 0-1.82.206-2.34.623-.52.417-.776 1.007-.776 1.775 0 .722.183 1.259.556 1.628.365.37.897.658 1.656.658zm12.595 1.694c-.29 0-.484-.048-.61-.152-.127-.096-.238-.318-.336-.62L7.768 4.285a2.808 2.808 0 0 1-.143-.637c0-.254.127-.39.38-.39h1.553c.302 0 .508.049.627.152.127.096.23.318.326.62l2.408 9.498 2.233-9.498c.088-.31.19-.524.318-.62.127-.103.34-.152.634-.152h1.266c.302 0 .508.049.635.152.127.096.238.318.318.62l2.257 9.617 2.48-9.617c.096-.31.206-.524.325-.62.127-.103.326-.152.62-.152h1.473c.254 0 .389.128.389.39 0 .08-.016.16-.04.247-.024.088-.064.207-.12.366l-3.453 11.092c-.096.31-.206.524-.333.62-.127.103-.326.152-.62.152h-1.36c-.302 0-.508-.049-.635-.16-.127-.103-.238-.317-.318-.627l-2.217-9.26-2.2 9.252c-.087.31-.19.524-.317.627-.128.103-.34.16-.635.16l-1.376.008z"/>
</svg>
